<?xml version="1.0" encoding="utf-8"?>
<!-- Generator: Adobe Illustrator 24.3.0, SVG Export Plug-In . SVG Version: 6.00 Build 0)  -->
<svg version="1.1" id="Layer_1" xmlns="http://www.w3.org/2000/svg" xmlns:xlink="http://www.w3.org/1999/xlink" x="0px" y="0px"
	 viewBox="0 0 324 63" style="enable-background:new 0 0 324 63;" xml:space="preserve">
<style type="text/css">
	.st0{fill-rule:evenodd;clip-rule:evenodd;fill:#F8991D;}
</style>
<polygon id="Star-1_1_" class="st0" points="289.5,50.85 270.69,60.9 274.28,39.62 259.07,24.56 280.1,21.46 289.5,2.1 298.9,21.46 
	319.93,24.56 304.72,39.62 308.31,60.9 "/>
<polygon id="Star-1_2_" class="st0" points="34.5,50.85 15.69,60.9 19.28,39.62 4.07,24.56 25.1,21.46 34.5,2.1 43.9,21.46 
	64.93,24.56 49.72,39.62 53.31,60.9 "/>
<polygon id="Star-1_3_" class="st0" points="98.5,50.85 79.69,60.9 83.28,39.62 68.07,24.56 89.1,21.46 98.5,2.1 107.9,21.46 
	128.93,24.56 113.72,39.62 117.31,60.9 "/>
<polygon id="Star-1_4_" class="st0" points="163.5,50.85 144.69,60.9 148.28,39.62 133.07,24.56 154.1,21.46 163.5,2.1 172.9,21.46 
	193.93,24.56 178.72,39.62 182.31,60.9 "/>
<polygon id="Star-1_5_" class="st0" points="225.5,50.85 206.69,60.9 210.28,39.62 195.07,24.56 216.1,21.46 225.5,2.1 234.9,21.46 
	255.93,24.56 240.72,39.62 244.31,60.9 "/>
</svg>
