<?xml version="1.0" encoding="utf-8"?>
<!-- Generator: Adobe Illustrator 24.3.0, SVG Export Plug-In . SVG Version: 6.00 Build 0)  -->
<svg version="1.1" id="Layer_1" xmlns="http://www.w3.org/2000/svg" xmlns:xlink="http://www.w3.org/1999/xlink" x="0px" y="0px"
	 viewBox="0 0 1920 1080" style="enable-background:new 0 0 1920 1080;" xml:space="preserve">
<style type="text/css">
	.st0{fill:none;stroke:#000000;stroke-miterlimit:10;}
</style>
<polygon class="st0" points="757.36,333.93 960,217 1163.52,334 1061.71,392.75 960.5,333.6 859.15,392.75 "/>
<polygon class="st0" points="757.33,626.91 757.33,744.31 960.5,862 960,626.91 858.91,568.66 858.91,685.76 "/>
<polygon class="st0" points="1061.45,568.66 960,626.91 960.5,862 1163.78,745.36 1163.78,626.68 1061.89,684.7 "/>
<polygon class="st0" points="757.33,626.91 858.91,685.76 858.91,568.66 960,626.91 1061.45,568.66 1061.89,684.7 1163.78,626.68 
	960,509.05 "/>
<polygon class="st0" points="757.36,333.93 757.33,451.56 909.13,538.64 960,509.05 960.55,451.56 1061.89,509.05 1061.71,392.75 
	960.5,333.6 960.5,450.87 859.25,509.57 859.15,392.75 "/>
<polygon class="st0" points="1163.52,450.37 1163.52,334 1061.71,392.75 1061.89,509.05 960.55,451.56 960,509.05 1011.25,538.64 
	"/>
</svg>
