<?xml version="1.0" encoding="utf-8"?>
<!-- Generator: Adobe Illustrator 24.3.0, SVG Export Plug-In . SVG Version: 6.00 Build 0)  -->
<svg version="1.1" id="Layer_1" xmlns="http://www.w3.org/2000/svg" xmlns:xlink="http://www.w3.org/1999/xlink" x="0px" y="0px"
	 viewBox="0 0 406.45 645" style="enable-background:new 0 0 406.45 645;" xml:space="preserve">
<style type="text/css">
	.st0{fill:none;stroke:#000000;stroke-miterlimit:10;}
</style>
<polygon class="st0" points="0.03,116.93 202.67,0 406.19,117 304.38,175.75 203.17,116.6 101.82,175.75 "/>
<polygon class="st0" points="0,409.91 0,527.31 203.17,645 202.67,409.91 101.59,351.66 101.59,468.76 "/>
<polygon class="st0" points="304.12,351.66 202.67,409.91 203.17,645 406.45,528.36 406.45,409.68 304.56,467.7 "/>
<polygon class="st0" points="0,409.91 101.59,468.76 101.59,351.66 202.67,409.91 304.12,351.66 304.56,467.7 406.45,409.68 
	202.67,292.05 "/>
<polygon class="st0" points="0.03,116.93 0,234.56 151.8,321.64 202.67,292.05 203.23,234.56 304.56,292.05 304.38,175.75 
	203.17,116.6 203.17,233.87 101.92,292.57 101.82,175.75 "/>
<polygon class="st0" points="406.19,233.37 406.19,117 304.38,175.75 304.56,292.05 203.23,234.56 202.67,292.05 253.92,321.64 "/>
</svg>
